<svg width="1100" height="1000 " viewBox="0 0 375 528" fill="none" xmlns="http://www.w3.org/2000/svg">
<path opacity="0.1" d="M-93 0L-93 528M-61.8333 0L-61.8333 528M-30.6666 0L-30.6667 528M0.500025 0L0.500005 528M31.6667 0L31.6667 528M62.8333 0L62.8333 528M94 0L94 528M125.167 0L125.167 528M156.333 0L156.333 528M187.5 0L187.5 528M218.667 0L218.667 528M249.833 0L249.833 528M281 0L281 528M312.167 0L312.167 528M343.333 0L343.333 528M374.5 0V528M405.667 0V528M436.833 0V528M468 0V528" stroke="url(#paint0_linear_143_475)"/>
<defs>
<linearGradient id="paint0_linear_143_475" x1="467.781" y1="1.04864e-06" x2="467.781" y2="514.785" gradientUnits="userSpaceOnUse">
<stop stop-color="white"/>
<stop offset="1" stop-color="white" stop-opacity="0"/>
</linearGradient>
</defs>
</svg>
